# xmcd
#
# Track frame offsets: 
#        150
#        26473
#        55123
#        89698
#        115348
#        137923
#        162823
#        207973
#        231898
#        256273
#
# Disc length: 3671 seconds
#
# Revision: 0
# Processed by: cddbd v1.5.2PL0 Copyright (c) Steve Scherf et al.
# Submitted via: ExactAudioCopy v0.95b4
#
DISCID=850e550a
DTITLE=Robert Cray - 2001-09-02 Atlanta GA
DYEAR=2001
DGENRE=Blues
TTITLE0=Shiver All Over
TTITLE1=Anytime
TTITLE2=Our Last Time
TTITLE3=Right Next Door
TTITLE4=The Younger Man
TTITLE5=Sometimes I Did You Wrong
TTITLE6=I'll Go On Lovin' You
TTITLE7=Try My Best To Please Her
TTITLE8=I'm Going Home
TTITLE9=Love Sickness In Your Blood
EXTD=
EXTT0=
EXTT1=
EXTT2=
EXTT3=
EXTT4=
EXTT5=
EXTT6=
EXTT7=
EXTT8=
EXTT9=
PLAYORDER=
